<?xml version="1.0" encoding="UTF-8" standalone="no"?><!DOCTYPE svg PUBLIC "-//W3C//DTD SVG 1.1//EN" "http://www.w3.org/Graphics/SVG/1.1/DTD/svg11.dtd"><svg width="100%" height="100%" viewBox="0 0 2134 2134" version="1.1" xmlns="http://www.w3.org/2000/svg" xmlns:xlink="http://www.w3.org/1999/xlink" xml:space="preserve" xmlns:serif="http://www.serif.com/" style="fill-rule:evenodd;clip-rule:evenodd;stroke-linejoin:round;stroke-miterlimit:2;"><rect x="-0" y="0" width="2133.33" height="2133.33" style="fill:#0c0a09;"/><path d="M1257.17,822.46l340.1,-0c-1.279,-256.993 -199.457,-427.043 -516.543,-427.043c-311.332,-0 -531.246,167.493 -529.329,416.814c-0.639,204.571 141.283,318.364 373.343,368.229l130.415,28.128c145.757,31.964 195.621,68.404 196.9,127.857c-1.279,64.568 -60.093,109.957 -173.886,109.957c-136.168,0 -216.718,-63.928 -222.472,-184.114l-337.542,0c1.278,328.593 223.75,475.629 565.128,475.629c331.789,-0 530.607,-143.2 531.886,-401.472c-1.279,-199.457 -120.186,-339.46 -409.143,-401.471l-107.4,-23.014c-124.021,-26.211 -179.639,-62.65 -176.443,-125.3c0.639,-57.536 48.586,-99.729 158.543,-99.729c115.071,-0 169.411,50.504 176.443,135.529Z" style="fill:#fff;fill-rule:nonzero;"/></svg>